<?xml version="1.0" encoding="utf-8"?>
<!-- Generator: Adobe Illustrator 14.0.0, SVG Export Plug-In . SVG Version: 6.00 Build 43363)  -->
<!DOCTYPE svg PUBLIC "-//W3C//DTD SVG 1.1//EN" "http://www.w3.org/Graphics/SVG/1.1/DTD/svg11.dtd">
<svg version="1.1" id="Calque_1" xmlns="http://www.w3.org/2000/svg" xmlns:xlink="http://www.w3.org/1999/xlink" x="0px" y="0px"
	 width="141.73px" height="141.73px" viewBox="0 0 141.73 141.73" enable-background="new 0 0 141.73 141.73" xml:space="preserve">
<g>
	<path fill="#FFFFFF" d="M38.84,130.204c-1.072,0-2.062-0.571-2.598-1.5L4.16,73.137c-0.536-0.928-0.536-2.072,0-3l32.083-55.568
		c0.536-0.928,1.526-1.5,2.598-1.5h64.165c1.072,0,2.063,0.572,2.598,1.5l32.082,55.568c0.536,0.928,0.536,2.072,0,3l-32.082,55.567
		c-0.535,0.928-1.525,1.5-2.598,1.5H38.84z"/>
	<path d="M103.005,16.068l32.082,55.568l-32.082,55.567H38.84L6.758,71.637L38.84,16.068H103.005 M103.005,10.068H38.84
		c-2.144,0-4.125,1.144-5.196,3L1.562,68.637c-1.072,1.856-1.072,4.144,0,6l32.083,55.567c1.072,1.856,3.053,3,5.196,3h64.165
		c2.144,0,4.124-1.144,5.196-3l32.082-55.567c1.071-1.856,1.071-4.144,0-6l-32.082-55.568
		C107.129,11.212,105.148,10.068,103.005,10.068L103.005,10.068z"/>
</g>
<g>
	<defs>
		<polygon id="SVGID_1_" points="40.84,130.204 8.758,74.637 40.84,19.068 105.005,19.068 137.087,74.637 105.005,130.204 		"/>
	</defs>
	<clipPath id="SVGID_2_">
		<use xlink:href="#SVGID_1_"  overflow="visible"/>
	</clipPath>
	<g clip-path="url(#SVGID_2_)">
		<polygon fill="#7FA2B3" points="38.84,127.204 6.758,71.637 38.84,16.068 103.005,16.068 135.087,71.637 103.005,127.204 		"/>
	</g>
</g>
<g>
	<path fill="#FFFFFF" d="M78.386,39.571l-14.313,68.819c-1.243,0.13-2.402,0.245-3.48,0.343c-1.078,0.099-2.468,0.147-4.167,0.147
		c-1.438,0-2.565-0.539-3.382-1.618c-0.818-1.078-1.421-2.466-1.814-4.166c-0.654-2.679-1.406-6.013-2.254-9.999
		c-0.85-3.986-1.75-8.268-2.696-12.843c-0.948-4.573-1.896-9.117-2.843-13.626c-0.948-4.51-1.798-8.61-2.549-12.303
		c-0.752-3.691-1.585-7.793-2.5-12.303c-0.196-0.915-0.213-1.552-0.049-1.912c0.163-0.358,0.833-0.539,2.01-0.539"/>
	<path fill="#FFFFFF" d="M107.502,106.43c0,0.72-0.147,1.193-0.441,1.422c-0.294,0.229-0.703,0.343-1.226,0.343H82.699V42.022
		c0-0.849,0.13-1.437,0.393-1.765c0.26-0.326,1.029-0.522,2.304-0.588"/>
</g>
<g>
	<path d="M74.386,35.571l-14.313,68.819c-1.243,0.13-2.402,0.245-3.48,0.343c-1.078,0.099-2.468,0.147-4.167,0.147
		c-1.438,0-2.565-0.539-3.382-1.618c-0.818-1.078-1.421-2.466-1.814-4.166c-0.654-2.679-1.406-6.013-2.254-9.999
		c-0.85-3.986-1.75-8.268-2.696-12.843c-0.948-4.574-1.896-9.117-2.843-13.626c-0.948-4.51-1.798-8.61-2.549-12.303
		c-0.752-3.691-1.585-7.793-2.5-12.303c-0.196-0.915-0.213-1.552-0.049-1.912c0.163-0.358,0.833-0.539,2.01-0.539"/>
	<path d="M103.502,102.43c0,0.72-0.147,1.193-0.441,1.422c-0.294,0.229-0.703,0.343-1.226,0.343H78.699V38.022
		c0-0.849,0.13-1.437,0.393-1.765c0.26-0.326,1.029-0.522,2.304-0.588"/>
</g>
</svg>
